<svg xmlns="http://www.w3.org/2000/svg" xmlns:xlink="http://www.w3.org/1999/xlink" width="183" height="103.065" viewBox="0 0 183 103.065">
  <defs>
    <filter id="Mail_Builder" x="0" y="14.033" width="181" height="59" filterUnits="userSpaceOnUse">
      <feOffset dy="3" input="SourceAlpha"/>
      <feGaussianBlur stdDeviation="3" result="blur"/>
      <feFlood flood-opacity="0.161"/>
      <feComposite operator="in" in2="blur"/>
      <feComposite in="SourceGraphic"/>
    </filter>
  </defs>
  <g id="Composant_4_4" data-name="Composant 4 – 4" transform="translate(9)">
    <g id="Composant_3_1" data-name="Composant 3 – 1">
      <g transform="matrix(1, 0, 0, 1, -9, 0)" filter="url(#Mail_Builder)">
        <text id="Mail_Builder-2" data-name="Mail Builder" transform="translate(9 53.03)" fill="#171717" font-size="31" font-family="SegoeUI, Segoe UI" opacity="0.89"><tspan x="0" y="0">Mail Builder</tspan></text>
      </g>
      <g id="_x31_5-Send_Mail" transform="translate(11.598 56.498) rotate(-45)">
        <g id="Groupe_272" data-name="Groupe 272" transform="translate(2.938 15)">
          <path id="Tracé_89" data-name="Tracé 89" d="M64.255,28.252,43.5,40.37,71.289,60.4V16A14.235,14.235,0,0,1,64.255,28.252Z" transform="translate(20.674 -14.418)" fill="rgba(0,0,0,0.17)"/>
          <path id="Tracé_90" data-name="Tracé 90" d="M20.527,26.1,47.46,41.822a4.751,4.751,0,0,0,2.393.647h.034a4.748,4.748,0,0,0,2.392-.647l4.033-2.354.027-.016L79.213,26.1a11.058,11.058,0,0,0,5.465-9.519V15H15.062v1.582A11.058,11.058,0,0,0,20.527,26.1Z" transform="translate(4.121 -15)" fill="rgba(0,0,0,0.17)"/>
          <path id="Tracé_91" data-name="Tracé 91" d="M45.255,40.365,24.5,28.246A14.229,14.229,0,0,1,17.457,16V33.4H8.672a1.582,1.582,0,1,0,0,3.164H28.247a4.746,4.746,0,1,1,0,9.493H7.09a1.582,1.582,0,0,0,0,3.164H17.457V60.4Z" transform="translate(-1.441 -14.418)" fill="rgba(0,0,0,0.17)"/>
          <path id="Tracé_92" data-name="Tracé 92" d="M55.039,34.364a7.912,7.912,0,0,1-3.988,1.078H51.03a7.926,7.926,0,0,1-4-1.079l-3.181-1.857L13.062,54.691V57.02A1.582,1.582,0,0,0,14.645,58.6H87.424a1.582,1.582,0,0,0,1.582-1.582V54.691L58.221,32.506Z" transform="translate(2.957 -4.809)" fill="rgba(0,0,0,0.17)"/>
          <path id="Tracé_93" data-name="Tracé 93" d="M31.317,32.582A1.582,1.582,0,0,0,29.735,31H4.52a1.582,1.582,0,1,0,0,3.164H29.735A1.582,1.582,0,0,0,31.317,32.582Z" transform="translate(-2.937 -5.685)" fill="rgba(0,0,0,0.17)"/>
        </g>
      </g>
    </g>
  </g>
</svg>
